<svg xmlns="http://www.w3.org/2000/svg" width="56" height="56" fill="none" viewBox="0 0 56 56">
    <path fill="#0A2896" d="M50.781 9c.58 0 1.125.114 1.635.343.51.21.958.51 1.345.896.386.387.685.835.896 1.345.229.51.343 1.055.343 1.635v28.687c0 .58-.114 1.125-.343 1.635-.21.51-.51.958-.896 1.345-.387.386-.835.694-1.345.923-.51.21-1.055.316-1.635.316H5.22c-.58 0-1.125-.105-1.635-.316-.51-.229-.958-.536-1.345-.923-.386-.387-.694-.835-.923-1.345-.21-.51-.316-1.055-.316-1.635V13.22c0-.58.105-1.125.316-1.635.229-.51.537-.958.923-1.345.387-.386.835-.685 1.345-.896C4.094 9.114 4.639 9 5.219 9H50.78zM5.22 12.375c-.246 0-.448.08-.607.237-.158.159-.237.36-.237.607v5.906h47.25v-5.906c0-.246-.08-.448-.237-.607-.158-.158-.36-.237-.607-.237H5.22zM50.78 42.75c.246 0 .449-.08.607-.237.158-.158.237-.36.237-.607V22.5H4.375v19.406c0 .246.08.449.237.607.159.158.36.237.607.237H50.78zM38.125 32.625h6.75V36h-6.75v-3.375z"/>
    <path fill="#0AF" d="M51.625 19.125H4.375V22.5h47.25v-3.375z"/>
</svg>
