<svg xmlns="http://www.w3.org/2000/svg" width="32" height="32" fill="none" viewBox="0 0 32 32">
    <path fill="#2F3441" d="M29.018 5.143c.331 0 .643.065.934.195.291.121.547.292.768.513.221.22.392.477.513.768.13.291.196.603.196.934v16.393c0 .332-.066.643-.196.934-.12.292-.292.548-.513.769-.22.22-.477.396-.768.527-.291.12-.603.18-.934.18H2.982c-.331 0-.643-.06-.934-.18-.291-.13-.547-.306-.768-.527-.221-.221-.397-.477-.528-.769-.12-.291-.18-.602-.18-.934V7.553c0-.331.06-.643.18-.934.13-.291.307-.547.528-.768.22-.221.477-.392.768-.513.291-.13.603-.195.934-.195h26.036zM2.982 7.07c-.14 0-.256.045-.346.136-.09.09-.136.206-.136.346v3.375h27V7.553c0-.14-.045-.256-.136-.346-.09-.09-.206-.136-.346-.136H2.982zm26.036 17.357c.14 0 .256-.045.346-.135.09-.09.136-.206.136-.347v-11.09h-27v11.09c0 .14.045.256.136.347.09.09.205.135.346.135h26.036zm-7.232-5.785h3.857v1.928h-3.857v-1.928z"/>
</svg>
