<svg xmlns="http://www.w3.org/2000/svg" width="32" height="32" fill="none" viewBox="0 0 32 32">
    <path fill="#2F3441" fill-rule="evenodd" d="M31.052 7.548c.251-.622.377-1.265.377-1.928 0-.693-.136-1.346-.407-1.959-.261-.613-.623-1.145-1.085-1.597-.452-.462-.985-.824-1.597-1.085-.613-.271-1.266-.407-1.959-.407-.663 0-1.306.126-1.928.377-.623.251-1.176.618-1.658 1.1L2.952 21.892l-2.38 9.537 9.537-2.38L29.952 9.206c.482-.483.849-1.035 1.1-1.658zM8.225 23.775c-.763-.773-1.677-1.335-2.742-1.687L21.786 5.8l1.37-1.37c.252-.252.488-.493.709-.724.22-.23.452-.437.693-.618.251-.18.517-.321.799-.421.29-.11.627-.166 1.01-.166.431 0 .833.085 1.204.256.382.16.714.387.995.678.291.281.517.613.678.994.17.372.256.774.256 1.206 0 .381-.055.718-.166 1.01-.1.28-.24.547-.422.798-.18.24-.386.472-.617.693-.231.22-.473.457-.724.708l-1.37 1.371L9.912 26.518c-.352-1.065-.914-1.98-1.688-2.743zm-.045 3.767l-4.957 1.236L4.46 23.82c.462.1.899.266 1.31.497.412.22.779.492 1.1.813.322.322.593.689.814 1.1.231.412.397.85.497 1.311z" clip-rule="evenodd"/>
    <path fill="#2F3441" d="M21.786 5.8l4.414 4.415 1.371-1.371-4.414-4.415-1.371 1.372z"/>
</svg>
