<svg xmlns="http://www.w3.org/2000/svg" width="42" height="42" fill="none" viewBox="0 0 42 42">
    <circle cx="21" cy="21" r="20" stroke="#6B7683" stroke-width="2"/>
    <path fill="#6B7683" d="M21 11.477c-1.313 0-2.442 1.075-2.442 2.442v2.063l-6.7 3.694c-.115.063-.212.155-.279.268-.067.113-.102.241-.103.373v2.93c0 .115.027.228.078.33.052.102.126.191.218.26.092.068.2.114.312.133.113.02.229.013.338-.02l6.38-1.916v4.32l-1.701 1.489c-.08.069-.144.154-.187.25-.044.097-.066.201-.065.307v1.465c0 .105.022.21.066.305.044.095.108.18.187.25.08.068.174.12.275.148.1.03.207.037.311.022L21 30.117l3.312.473c.104.015.21.008.311-.021.101-.03.195-.08.275-.15.08-.068.143-.154.187-.25.044-.095.066-.199.066-.304V28.4c.001-.106-.021-.21-.065-.306-.043-.097-.107-.182-.186-.252l-1.702-1.487v-4.321l6.38 1.915c.11.034.225.04.338.021.113-.02.22-.065.312-.133.092-.069.166-.157.218-.26.051-.102.078-.215.078-.33v-2.93c0-.132-.036-.26-.103-.373-.067-.113-.163-.206-.279-.268l-6.7-3.694V13.92c0-1.367-1.129-2.442-2.442-2.442zm0 1.465c.514 0 .977.419.977.977v2.49c0 .132.036.26.103.373.067.113.163.206.278.268l6.7 3.694v1.519l-6.38-1.916c-.109-.033-.225-.04-.338-.021-.113.02-.22.065-.311.134-.092.068-.167.157-.218.26-.052.102-.078.215-.078.33v5.64c0 .104.023.207.066.302.044.095.107.18.186.248l1.701 1.488v.29l-2.58-.367c-.07-.01-.142-.01-.213 0l-2.58.367v-.29l1.703-1.488c.078-.069.141-.153.185-.248.043-.095.066-.198.066-.302v-5.64c0-.115-.026-.228-.078-.33-.05-.103-.126-.192-.218-.26-.092-.069-.198-.114-.311-.134-.113-.02-.23-.012-.339.021l-6.38 1.916v-1.519l6.7-3.694c.116-.063.212-.155.28-.268.066-.113.102-.241.102-.373v-2.49c0-.558.464-.977.977-.977z"/>
</svg>
