<svg xmlns="http://www.w3.org/2000/svg" width="42" height="42" fill="none" viewBox="0 0 42 42">
    <circle cx="21" cy="21" r="20" stroke="#6B7683" stroke-width="2"/>
    <path fill="#6B7683" stroke="#fff" stroke-width=".2" d="M29.572 15.286h-2.858V12.43c0-.253-.1-.495-.279-.674-.178-.178-.42-.278-.673-.278H14.333c-.757 0-1.483.302-2.019.837-.536.536-.837 1.262-.838 2.02v13.333c.001.757.302 1.484.838 2.02.536.535 1.262.836 2.02.837h15.238c.252 0 .494-.1.673-.279.178-.178.279-.42.279-.673V16.238c0-.252-.1-.494-.28-.673-.178-.179-.42-.279-.672-.279zm-15.239-1.905H24.81v1.905H14.333c-.252 0-.495-.1-.673-.279-.179-.178-.279-.42-.279-.673 0-.253.1-.495.279-.674.178-.178.42-.279.673-.279zm0 15.238c-.252 0-.494-.1-.673-.279-.178-.178-.279-.42-.279-.673v-10.64c.308.102.629.157.952.164H28.62v1.905h-1.905c-1.01 0-1.979.401-2.693 1.115-.715.715-1.116 1.684-1.116 2.694s.401 1.98 1.116 2.694c.714.714 1.683 1.116 2.693 1.116h1.905v1.904H14.333zm14.286-3.81h-1.905c-.505 0-.99-.2-1.346-.557-.358-.357-.558-.842-.558-1.347s.2-.99.558-1.347c.357-.357.841-.558 1.346-.558h1.905v3.81zm-1.905-2.856c.189 0 .373.056.53.16.156.105.278.254.35.428.072.174.091.365.054.55-.036.185-.127.354-.26.488-.133.133-.303.223-.488.26-.185.037-.376.018-.55-.054-.174-.072-.323-.194-.428-.35-.104-.157-.16-.341-.16-.53 0-.253.1-.495.279-.673.178-.179.42-.28.673-.28z"/>
</svg>
