<svg xmlns="http://www.w3.org/2000/svg" width="42" height="42" fill="none" viewBox="0 0 42 42">
    <circle cx="21" cy="21" r="20" stroke="#6B7683" stroke-width="2"/>
    <path fill="#6B7683" d="M25.154 17.542c-1.087 0-2.11.192-2.94.447v-2.556c0-1.726-2.301-3.004-5.369-3.004-3.068 0-5.369 1.278-5.369 3.004v10.226c0 1.726 2.301 3.068 5.369 3.068 1.726 0 3.196-.384 4.154-1.087.96.64 2.43 1.087 4.155 1.087 3.068 0 5.369-1.343 5.369-3.068v-5.113c.064-1.726-2.237-3.004-5.37-3.004zm-12.4 2.492c.96.64 2.43 1.023 4.091 1.023 1.087 0 2.11-.192 2.94-.447v1.15c-.703.32-1.726.575-2.94.575-2.365 0-4.09-.958-4.09-1.79v-.51zm0 2.557c.96.64 2.43 1.023 4.091 1.023 1.087 0 2.11-.192 2.94-.448v1.15c-.703.32-1.726.576-2.94.576-2.365 0-4.09-.959-4.09-1.79v-.511zm4.091 4.857c-2.365 0-4.09-.958-4.09-1.79v-.574c.958.639 2.428 1.022 4.09 1.022 1.087 0 2.11-.192 2.94-.447 0 .383.128.703.32 1.023-.767.447-1.918.767-3.26.767zm4.154-9.459c0 .831-1.79 1.79-4.09 1.79-2.301 0-4.09-.959-4.09-1.79v-.575c.958.64 2.428 1.023 4.09 1.023s3.132-.384 4.09-1.023v.575zm-4.154-.767c-2.365 0-4.09-.959-4.09-1.79 0-.83 1.79-1.725 4.09-1.725s4.09.895 4.09 1.726c.064.83-1.725 1.79-4.09 1.79zm12.463 8.437c0 .83-1.79 1.79-4.09 1.79-1.343 0-2.493-.32-3.196-.704-.575-.32-.895-.703-.895-1.022v-.575c.32.255.767.447 1.215.575.83.32 1.79.447 2.94.447 1.661 0 3.131-.383 4.09-1.022v.51h-.064zm0-2.557c0 .831-1.79 1.79-4.09 1.79-1.15 0-2.173-.256-2.94-.575-.767-.32-1.215-.767-1.215-1.215v-.575c.32.192.703.384 1.15.575h.065c.83.32 1.853.448 2.94.448 1.086 0 2.109-.192 3.004-.512.447-.127.83-.32 1.15-.575v.64h-.064zm0-2.556c0 .83-1.79 1.79-4.09 1.79-1.15 0-2.173-.256-2.94-.576-.767-.32-1.215-.767-1.215-1.214 0-.384.448-.895 1.215-1.215.703-.32 1.725-.575 2.94-.575 2.3.064 4.09.959 4.09 1.79z"/>
</svg>
