<svg xmlns="http://www.w3.org/2000/svg" width="42" height="42" fill="none" viewBox="0 0 42 42">
    <path fill="#6B7683" d="M21 11.477c-1.073 0-2.101.392-2.86 1.088-.759.695-1.185 1.638-1.187 2.622v-.247h-.961c-.372 0-.731.118-1.02.333-.287.214-.487.513-.564.845L11.51 28.734c-.05.216-.046.44.01.654.057.215.165.416.317.587.152.172.343.31.56.405.218.095.456.144.697.144h15.81c.241 0 .479-.05.696-.144.218-.095.41-.233.561-.405.152-.171.26-.372.317-.587.056-.214.06-.438.01-.654l-2.897-12.616c-.077-.332-.276-.63-.565-.845-.288-.215-.647-.332-1.018-.333h-.962v.247c-.002-.984-.428-1.927-1.187-2.622-.759-.696-1.787-1.087-2.86-1.088zm-2.428 3.71c0-.59.256-1.157.711-1.574.455-.418 1.073-.652 1.717-.652.644 0 1.262.234 1.717.652.455.417.711.984.711 1.574v-.247h-4.856v.247zm7.437 1.237l2.896 12.616h-15.81l2.896-12.616h.962v1.484c0 .197.086.386.237.525.152.14.358.217.573.217.214 0 .42-.078.572-.217.152-.14.237-.328.237-.525v-1.484h4.856v1.484c0 .197.085.386.237.525.152.14.358.217.572.217.215 0 .42-.078.573-.217.151-.14.237-.328.237-.525v-1.484h.962z"/>
    <path fill="#6B7683" d="M21 20c-.533-.434-1.206-.66-1.893-.631-.688.027-1.341.305-1.837.781-.516.516-.806 1.216-.806 1.946s.29 1.43.806 1.946l3.158 3.159c.075.075.164.134.262.175.099.04.204.062.31.062.106 0 .212-.021.31-.062.098-.04.187-.1.262-.175l3.159-3.159c.516-.516.805-1.216.805-1.946s-.29-1.43-.805-1.946c-.497-.476-1.15-.753-1.837-.78-.688-.028-1.36.196-1.894.63zm2.586 2.898L21 25.484l-2.175-2.176-.411-.41c-.212-.213-.331-.501-.331-.802 0-.3.119-.589.331-.801.216-.206.503-.321.802-.321.298 0 .585.115.801.32l.41.411c.153.152.358.237.573.237.215 0 .42-.085.572-.237l.41-.41c.217-.206.504-.321.803-.321.298 0 .585.115.801.32.212.213.332.502.332.802 0 .3-.12.589-.332.802z"/>
    <circle cx="21" cy="21" r="20" stroke="#6B7683" stroke-width="2"/>
</svg>
