<svg xmlns="http://www.w3.org/2000/svg" width="42" height="42" fill="none" viewBox="0 0 42 42">
    <path fill="#6B7683" stroke="#fff" stroke-width=".1" d="M30.286 13.143H11.714c-.395 0-.714.319-.714.714v14.286c0 .395.32.714.714.714h18.572c.395 0 .714-.32.714-.714V13.857c0-.395-.32-.714-.714-.714zM12.607 14.75h16.786v2.678H12.607V14.75zm16.786 12.5H12.607v-7.857h16.786v7.857zm-5.29-1.429h3.683c.098 0 .178-.08.178-.178v-1.608c0-.098-.08-.178-.178-.178h-3.683c-.099 0-.179.08-.179.178v1.608c0 .098.08.178.179.178z"/>
    <circle cx="21" cy="21" r="20" stroke="#6B7683" stroke-width="2"/>
</svg>
