<svg xmlns="http://www.w3.org/2000/svg" width="42" height="42" fill="none" viewBox="0 0 42 42">
    <circle cx="21" cy="21" r="20" stroke="#6B7683" stroke-width="2"/>
    <path fill="#6B7683" stroke="#6B7683" stroke-width=".3" d="M27.433 19.65v8.001c0 .37-.011.741 0 1.113v.015l.64-.64h-5.147l.64.64v-2.563-1.664c0-.382.015-.76-.057-1.138-.192-.998-1.066-1.835-2.07-1.985-.564-.085-1.11-.006-1.623.25-.44.222-.824.603-1.057 1.034-.207.384-.316.81-.319 1.247v4.819l.641-.64h-5.147l.64.64v-.91-2.174-2.642-2.275c0-.37.01-.741 0-1.113v-.015c0-.335-.294-.655-.64-.64-.348.014-.64.281-.64.64v8.001c0 .37-.01.741 0 1.113v.015c0 .346.292.64.64.64h5.147c.346 0 .641-.292.641-.64v-1.7-2.627c0-.255-.015-.515.02-.767-.01.058-.016.113-.024.17.023-.162.066-.317.128-.47l-.064.155c.047-.114.105-.22.17-.323.016-.023.033-.045.048-.068.062-.092-.113.132-.024.03.04-.045.08-.092.122-.135.038-.038.081-.077.124-.113.109-.092-.073.049-.032.023.028-.017.053-.038.081-.055.102-.066.21-.124.322-.171l-.153.064c.151-.062.307-.105.47-.128l-.171.023c.177-.023.354-.023.531 0l-.17-.023c.162.023.318.066.47.128l-.154-.064c.113.047.22.105.322.17.024.016.045.033.069.048.091.062-.133-.113-.03-.024.045.04.092.08.134.122.039.038.077.081.113.124.092.109-.049-.073-.023-.032.017.028.038.053.055.081.067.103.124.21.171.323l-.064-.154c.062.152.105.307.128.47l-.023-.171c.028.216.02.436.02.651v4.441c0 .346.292.64.64.64h5.147c.346 0 .641-.292.641-.64v-.91-2.174-2.643-2.274c0-.37.009-.741 0-1.113v-.015c0-.335-.295-.656-.64-.64-.349.019-.643.283-.643.642z"/>
    <path fill="#6B7683" stroke="#6B7683" stroke-width=".3" d="M12.567 21.632c.29-.269.58-.54.873-.81l2.096-1.94 2.524-2.341 2.183-2.025c.355-.33.718-.65 1.064-.987l.015-.013h-.906l.9.81 2.157 1.941 2.599 2.341 2.249 2.025c.365.329.728.662 1.098.987l.015.012c.25.225.664.265.905 0 .225-.245.267-.666 0-.905l-.899-.81-2.157-1.941-2.6-2.341-2.248-2.025c-.366-.329-.729-.662-1.098-.987l-.015-.012c-.265-.24-.641-.246-.906 0-.29.269-.58.54-.873.809l-2.096 1.941-2.524 2.341-2.183 2.025c-.355.33-.718.65-1.064.987l-.015.013c-.245.228-.247.677 0 .905.263.242.643.244.906 0z"/>
</svg>
