<svg xmlns="http://www.w3.org/2000/svg" width="42" height="42" fill="none" viewBox="0 0 42 42">
    <path fill="#6B7683" d="M10.943 10.485c-.39 0-.678.397-.686.686v7.314c0 .36.327.686.686.686H14.6V29c0 .359.327.685.686.685h9.6c.359 0 .686-.326.686-.685V15.285c0-.359-.327-.685-.686-.685h-9.6c-.414 0-.678.396-.686.685v.457h-.914v-1.828h14.628v1.829H27.4v-.458c.008-.366-.327-.69-.693-.685-.361.003-.686.324-.678.685v14.857H16.2c-.362-.005-.693.324-.693.686 0 .363.33.691.693.686h10.514c.36 0 .686-.327.686-.686V19.171h3.657c.36 0 .686-.327.686-.686v-7.314c0-.359-.327-.686-.686-.686H10.943zm.686 1.372h18.743V17.8H27.4v-.686H29c.36 0 .686-.327.686-.686v-3.2c0-.359-.327-.685-.686-.685H13c-.378 0-.678.396-.686.685v3.2c0 .36.327.686.686.686h1.6v.686H11.63v-5.943zm4.343 3.657H24.2v12.8h-8.228v-12.8z"/>
    <circle cx="21" cy="21" r="20" stroke="#6B7683" stroke-width="2"/>
</svg>
