<svg xmlns="http://www.w3.org/2000/svg" width="832" height="832" fill="none" viewBox="0 0 832 832">
    <circle cx="720.998" cy="415.336" r="5.5" fill="#DCE0EB" fill-opacity=".7"/>
    <circle cx="718.657" cy="453.249" r="5.5" fill="#DCE0EB" fill-opacity=".7"/>
    <circle cx="711.272" cy="491.914" r="5.5" fill="#DCE0EB" fill-opacity=".7"/>
    <circle cx="699.011" cy="529.008" r="12" fill="#0A2896" fill-opacity=".15"/>
    <circle cx="699.109" cy="528.82" r="5.5" fill="#0A2896"/>
    <circle cx="682.106" cy="564.222" r="5.5" fill="#DCE0EB" fill-opacity=".7"/>
    <circle cx="660.796" cy="596.969" r="5.5" fill="#DCE0EB" fill-opacity=".7"/>
    <circle cx="635.521" cy="626.676" r="5.5" fill="#DCE0EB" fill-opacity=".7"/>
    <circle cx="606.671" cy="652.924" r="5.5" fill="#DCE0EB" fill-opacity=".7"/>
    <circle cx="574.696" cy="675.289" r="5.5" fill="#DCE0EB" fill-opacity=".7"/>
    <circle cx="540.113" cy="693.377" r="5.5" fill="#DCE0EB" fill-opacity=".7"/>
    <circle cx="503.552" cy="706.841" r="5.5" fill="#DCE0EB" fill-opacity=".7"/>
    <circle cx="465.534" cy="715.487" r="5.5" fill="#DCE0EB" fill-opacity=".7"/>
    <circle cx="426.739" cy="719.187" r="5.5" fill="#DCE0EB" fill-opacity=".7"/>
    <circle cx="386.607" cy="717.841" r="5.5" fill="#DCE0EB" fill-opacity=".7"/>
    <circle cx="348.166" cy="711.516" r="5.5" fill="#DCE0EB" fill-opacity=".7"/>
    <circle cx="310.876" cy="700.306" r="5.5" fill="#DCE0EB" fill-opacity=".7"/>
    <circle cx="275.504" cy="684.51" r="11.5" fill="#0A2896" fill-opacity=".15"/>
    <circle cx="275.295" cy="684.367" r="5.5" fill="#0A2896"/>
    <circle cx="242.222" cy="664.112" r="5.5" fill="#DCE0EB" fill-opacity=".7"/>
    <circle cx="211.923" cy="639.759" r="5.5" fill="#DCE0EB" fill-opacity=".7"/>
    <circle cx="184.98" cy="611.785" r="5.5" fill="#DCE0EB" fill-opacity=".7"/>
    <circle cx="161.801" cy="580.614" r="5.5" fill="#DCE0EB" fill-opacity=".7"/>
    <circle cx="142.735" cy="546.65" r="5.5" fill="#DCE0EB" fill-opacity=".7"/>
    <circle cx="128.097" cy="510.243" r="5.5" fill="#DCE0EB" fill-opacity=".7"/>
    <circle cx="118.369" cy="472.571" r="5.5" fill="#DCE0EB" fill-opacity=".7"/>
    <circle cx="113.573" cy="434.333" r="5.5" fill="#DCE0EB" fill-opacity=".7"/>
    <circle cx="113.729" cy="393.965" r="5.5" fill="#DCE0EB" fill-opacity=".7"/>
    <circle cx="118.787" cy="355.944" r="5.5" fill="#DCE0EB" fill-opacity=".7"/>
    <circle cx="128.748" cy="318.465" r="5.5" fill="#DCE0EB" fill-opacity=".7"/>
    <circle cx="143.804" cy="281.815" r="5.5" fill="#DCE0EB" fill-opacity=".7"/>
    <circle cx="163.281" cy="247.797" r="5.5" fill="#DCE0EB" fill-opacity=".7"/>
    <circle cx="186.781" cy="216.781" r="5.5" fill="#DCE0EB" fill-opacity=".7"/>
    <circle cx="213.943" cy="189.081" r="5.5" fill="#DCE0EB" fill-opacity=".7"/>
    <circle cx="244.463" cy="164.997" r="5.5" fill="#DCE0EB" fill-opacity=".7"/>
    <circle cx="278.102" cy="144.842" r="5.5" fill="#DCE0EB" fill-opacity=".7"/>
    <circle cx="312.619" cy="129.72" r="5.5" fill="#DCE0EB" fill-opacity=".7"/>
    <circle cx="349.66" cy="118.81" r="5.5" fill="#DCE0EB" fill-opacity=".7"/>
    <circle cx="389.243" cy="112.58" r="5.5" fill="#DCE0EB" fill-opacity=".7"/>
    <circle cx="429.903" cy="111.6" r="5.5" fill="#DCE0EB" fill-opacity=".7"/>
    <circle cx="468.124" cy="115.611" r="5.5" fill="#DCE0EB" fill-opacity=".7"/>
    <circle cx="506.216" cy="124.634" r="5.5" fill="#DCE0EB" fill-opacity=".7"/>
    <circle cx="541.818" cy="138.055" r="5.5" fill="#DCE0EB" fill-opacity=".7"/>
    <circle cx="576.673" cy="156.593" r="5.5" fill="#DCE0EB" fill-opacity=".7"/>
    <circle cx="608.495" cy="179.215" r="5.5" fill="#DCE0EB" fill-opacity=".7"/>
    <circle cx="637.061" cy="205.597" r="5.5" fill="#DCE0EB" fill-opacity=".7"/>
    <circle cx="662.084" cy="235.44" r="5.5" fill="#DCE0EB" fill-opacity=".7"/>
    <circle cx="683.215" cy="268.435" r="5.5" fill="#DCE0EB" fill-opacity=".7"/>
    <circle cx="700.058" cy="304.237" r="5.5" fill="#DCE0EB" fill-opacity=".7"/>
    <circle cx="711.855" cy="341.039" r="5.5" fill="#DCE0EB" fill-opacity=".7"/>
    <circle cx="718.951" cy="379.866" r="5.5" fill="#DCE0EB" fill-opacity=".7"/>
    <circle cx="829" cy="415.836" r="3" fill="#DCE0EB" fill-opacity=".7"/>
    <circle cx="827.757" cy="448.123" r="3" fill="#DCE0EB" fill-opacity=".7"/>
    <circle cx="824.073" cy="479.824" r="3" fill="#DCE0EB" fill-opacity=".7"/>
    <circle cx="817.72" cy="512.105" r="3" fill="#DCE0EB" fill-opacity=".7"/>
    <circle cx="808.904" cy="543.459" r="3" fill="#DCE0EB" fill-opacity=".7"/>
    <circle cx="797.703" cy="573.828" r="3" fill="#DCE0EB" fill-opacity=".7"/>
    <circle cx="784.191" cy="603.127" r="3" fill="#DCE0EB" fill-opacity=".7"/>
    <circle cx="768.443" cy="631.248" r="3" fill="#DCE0EB" fill-opacity=".7"/>
    <circle cx="750.174" cy="658.575" r="3" fill="#DCE0EB" fill-opacity=".7"/>
    <circle cx="730.233" cy="683.855" r="3" fill="#DCE0EB" fill-opacity=".7"/>
    <circle cx="708.033" cy="707.876" r="3" fill="#DCE0EB" fill-opacity=".7"/>
    <circle cx="684.354" cy="729.784" r="3" fill="#DCE0EB" fill-opacity=".7"/>
    <circle cx="658.985" cy="749.832" r="3" fill="#DCE0EB" fill-opacity=".7"/>
    <circle cx="631.877" cy="767.996" r="3" fill="#DCE0EB" fill-opacity=".7"/>
    <circle cx="603.628" cy="783.858" r="3" fill="#DCE0EB" fill-opacity=".7"/>
    <circle cx="574.179" cy="797.465" r="3" fill="#DCE0EB" fill-opacity=".7"/>
    <circle cx="543.724" cy="808.712" r="3" fill="#DCE0EB" fill-opacity=".7"/>
    <circle cx="512.469" cy="817.513" r="3" fill="#DCE0EB" fill-opacity=".7"/>
    <circle cx="480.626" cy="823.814" r="3" fill="#DCE0EB" fill-opacity=".7"/>
    <circle cx="448.407" cy="827.589" r="3" fill="#DCE0EB" fill-opacity=".7"/>
    <circle cx="414.364" cy="828.839" r="3" fill="#DCE0EB" fill-opacity=".7"/>
    <circle cx="381.96" cy="827.46" r="3" fill="#DCE0EB" fill-opacity=".7"/>
    <circle cx="349.771" cy="823.561" r="3" fill="#DCE0EB" fill-opacity=".7"/>
    <circle cx="317.978" cy="817.141" r="3" fill="#DCE0EB" fill-opacity=".7"/>
    <circle cx="286.791" cy="808.23" r="3" fill="#DCE0EB" fill-opacity=".7"/>
    <circle cx="256.42" cy="796.886" r="3" fill="#DCE0EB" fill-opacity=".7"/>
    <circle cx="227.069" cy="783.196" r="3" fill="#DCE0EB" fill-opacity=".7"/>
    <circle cx="198.928" cy="767.267" r="3" fill="#DCE0EB" fill-opacity=".7"/>
    <circle cx="171.941" cy="749.055" r="3" fill="#DCE0EB" fill-opacity=".7"/>
    <circle cx="146.694" cy="728.977" r="3" fill="#DCE0EB" fill-opacity=".7"/>
    <circle cx="122.829" cy="706.746" r="3" fill="#DCE0EB" fill-opacity=".7"/>
    <circle cx="101.069" cy="683.049" r="3" fill="#DCE0EB" fill-opacity=".7"/>
    <circle cx="80.885" cy="657.294" r="3" fill="#DCE0EB" fill-opacity=".7"/>
    <circle cx="63.102" cy="630.523" r="3" fill="#DCE0EB" fill-opacity=".7"/>
    <circle cx="47.462" cy="602.467" r="3" fill="#DCE0EB" fill-opacity=".7"/>
    <circle cx="34.047" cy="573.251" r="3" fill="#DCE0EB" fill-opacity=".7"/>
    <circle cx="22.601" cy="541.963" r="3" fill="#DCE0EB" fill-opacity=".7"/>
    <circle cx="14.18" cy="511.737" r="3" fill="#DCE0EB" fill-opacity=".7"/>
    <circle cx="7.876" cy="479.577" r="3" fill="#DCE0EB" fill-opacity=".7"/>
    <circle cx="4.221" cy="447.997" r="3" fill="#DCE0EB" fill-opacity=".7"/>
    <circle cx="3" cy="412.581" r="3" fill="#DCE0EB" fill-opacity=".7"/>
    <circle cx="4.488" cy="380.384" r="3" fill="#DCE0EB" fill-opacity=".7"/>
    <circle cx="8.37" cy="348.981" r="3" fill="#DCE0EB" fill-opacity=".7"/>
    <circle cx="14.969" cy="316.671" r="3" fill="#DCE0EB" fill-opacity=".7"/>
    <circle cx="24.02" cy="285.362" r="3" fill="#DCE0EB" fill-opacity=".7"/>
    <circle cx="35.388" cy="255.205" r="3" fill="#DCE0EB" fill-opacity=".7"/>
    <circle cx="48.935" cy="226.326" r="3" fill="#DCE0EB" fill-opacity=".7"/>
    <circle cx="64.525" cy="198.828" r="3" fill="#DCE0EB" fill-opacity=".7"/>
    <circle cx="83.501" cy="170.503" r="12.5" fill="#0A2896" fill-opacity=".15"/>
    <circle cx="83.501" cy="170.503" r="5.5" fill="#0A2896"/>
    <circle cx="102.953" cy="146.416" r="3" fill="#DCE0EB" fill-opacity=".7"/>
    <circle cx="125.976" cy="121.788" r="3" fill="#DCE0EB" fill-opacity=".7"/>
    <circle cx="148.951" cy="100.763" r="3" fill="#DCE0EB" fill-opacity=".7"/>
    <circle cx="175.663" cy="79.917" r="3" fill="#DCE0EB" fill-opacity=".7"/>
    <circle cx="201.776" cy="62.656" r="3" fill="#DCE0EB" fill-opacity=".7"/>
    <circle cx="229.281" cy="47.341" r="3" fill="#DCE0EB" fill-opacity=".7"/>
    <circle cx="260.882" cy="32.946" r="3" fill="#DCE0EB" fill-opacity=".7"/>
    <circle cx="291.232" cy="22.008" r="3" fill="#DCE0EB" fill-opacity=".7"/>
    <circle cx="319.901" cy="14.062" r="3" fill="#DCE0EB" fill-opacity=".7"/>
    <circle cx="352.783" cy="7.634" r="3" fill="#DCE0EB" fill-opacity=".7"/>
    <circle cx="383.801" cy="4.06" r="3" fill="#DCE0EB" fill-opacity=".7"/>
    <circle cx="418.318" cy="3" r="3" fill="#DCE0EB" fill-opacity=".7"/>
    <circle cx="452.836" cy="4.45" r="3" fill="#DCE0EB" fill-opacity=".7"/>
    <circle cx="483.655" cy="8.342" r="3" fill="#DCE0EB" fill-opacity=".7"/>
    <circle cx="516.345" cy="15.105" r="3" fill="#DCE0EB" fill-opacity=".7"/>
    <circle cx="547.72" cy="24.281" r="3" fill="#DCE0EB" fill-opacity=".7"/>
    <circle cx="577.777" cy="35.719" r="3" fill="#DCE0EB" fill-opacity=".7"/>
    <circle cx="606.505" cy="49.296" r="3" fill="#DCE0EB" fill-opacity=".7"/>
    <circle cx="633.88" cy="64.91" r="3" fill="#DCE0EB" fill-opacity=".7"/>
    <circle cx="662.059" cy="84.101" r="3" fill="#DCE0EB" fill-opacity=".7"/>
    <circle cx="686.412" cy="103.657" r="3" fill="#DCE0EB" fill-opacity=".7"/>
    <circle cx="711.044" cy="126.837" r="3" fill="#DCE0EB" fill-opacity=".7"/>
    <circle cx="732.011" cy="150.002" r="12" fill="#0A2896" fill-opacity=".15"/>
    <circle cx="732.011" cy="150.002" r="6" fill="#0A2896"/>
    <circle cx="752.772" cy="176.709" r="3" fill="#DCE0EB" fill-opacity=".7"/>
    <circle cx="770.061" cy="203.086" r="3" fill="#DCE0EB" fill-opacity=".7"/>
    <circle cx="785.401" cy="230.936" r="3" fill="#DCE0EB" fill-opacity=".7"/>
    <circle cx="799.45" cy="262.127" r="3" fill="#DCE0EB" fill-opacity=".7"/>
    <circle cx="810.3" cy="292.596" r="3" fill="#DCE0EB" fill-opacity=".7"/>
    <circle cx="818.369" cy="322.322" r="3" fill="#DCE0EB" fill-opacity=".7"/>
    <circle cx="824.544" cy="354.95" r="3" fill="#DCE0EB" fill-opacity=".7"/>
    <circle cx="827.985" cy="386.651" r="3" fill="#DCE0EB" fill-opacity=".7"/>
</svg>
