<svg xmlns="http://www.w3.org/2000/svg" width="100" height="100" fill="none" viewBox="0 0 100 100">
    <path fill="#0A2896" d="M99.98 38.229c-.01-.115-.033-.229-.069-.339-.022-.098-.054-.194-.094-.286-.047-.09-.103-.176-.167-.255-.064-.094-.139-.181-.222-.259-.026-.023-.038-.055-.066-.078l-16.03-12.45V11.662c0-2.762-2.238-5-5-5H60.27l-7.233-5.616c-1.786-1.393-4.292-1.393-6.078 0L39.725 6.66H21.662c-2.761 0-5 2.239-5 5v12.903L.638 37.012c-.028.023-.04.055-.066.078-.083.078-.158.165-.222.259-.064.079-.12.164-.167.255-.04.092-.072.188-.095.287-.034.108-.057.22-.068.333 0 .035-.02.065-.02.1v56.674c.002 1.06.345 2.092.978 2.942.01.015.012.033.024.047.011.013.036.028.053.046.936 1.232 2.393 1.959 3.94 1.965H95c1.553-.004 3.016-.734 3.953-1.973.014-.017.034-.022.045-.038.012-.017.013-.032.024-.047.633-.85.976-1.882.978-2.942v-56.67c0-.034-.018-.064-.02-.1zM48.997 3.675c.582-.462 1.407-.462 1.989 0L54.83 6.66h-9.667l3.833-2.985zM5.415 96.665l43.582-33.854c.583-.461 1.407-.461 1.989 0L94.58 96.666H5.415zm91.251-2.599L53.038 60.181c-1.787-1.392-4.292-1.392-6.08 0L3.329 94.066V40.867l27.313 21.21c.728.564 1.776.431 2.34-.296.564-.728.432-1.776-.296-2.34L4.937 37.895l11.725-9.112v12.879c0 .92.747 1.667 1.667 1.667s1.667-.747 1.667-1.667V11.66c0-.92.746-1.666 1.666-1.666h56.67c.92 0 1.667.746 1.667 1.667v30.001c0 .92.746 1.667 1.666 1.667.92 0 1.667-.747 1.667-1.667V28.783l11.726 9.112L67.26 59.48c-.478.362-.725.953-.645 1.548.079.595.472 1.101 1.028 1.326.557.224 1.19.132 1.66-.241l27.362-21.246v53.2z"/>
    <path fill="#0AF" d="M69.998 39.995v-6.667c0-11.046-8.955-20-20-20-11.047 0-20.002 8.954-20.002 20S38.951 53.33 49.997 53.33c.92 0 1.667-.746 1.667-1.666 0-.921-.746-1.667-1.667-1.667-9.205 0-16.667-7.463-16.667-16.668 0-9.205 7.462-16.667 16.667-16.667 9.205 0 16.668 7.462 16.668 16.667v6.667c0 1.841-1.493 3.334-3.334 3.334s-3.334-1.493-3.334-3.334v-6.667c0-.92-.746-1.666-1.666-1.666-.92 0-1.667.746-1.667 1.666 0 3.682-2.985 6.667-6.667 6.667s-6.667-2.985-6.667-6.667 2.985-6.667 6.667-6.667c.92 0 1.667-.746 1.667-1.666 0-.92-.746-1.667-1.667-1.667-4.476-.01-8.413 2.955-9.64 7.26-1.227 4.304.556 8.9 4.365 11.25 3.809 2.352 8.716 1.885 12.014-1.14.363 3.524 3.426 6.145 6.965 5.958 3.538-.188 6.308-3.117 6.297-6.66z"/>
</svg>
