<svg xmlns="http://www.w3.org/2000/svg" width="56" height="56" fill="none" viewBox="0 0 56 56">
    <path fill="#0A2896" fill-rule="evenodd" d="M54.34 13.208c.44-1.09.66-2.215.66-3.375 0-1.213-.237-2.355-.712-3.428-.457-1.072-1.09-2.004-1.898-2.795-.791-.808-1.723-1.441-2.795-1.898C48.523 1.237 47.38 1 46.167 1c-1.16 0-2.285.22-3.375.66-1.09.439-2.057 1.08-2.9 1.924L5.166 38.31 1 55l16.69-4.166 34.726-34.726c.844-.843 1.485-1.81 1.925-2.9zM14.395 41.606c-1.335-1.354-2.935-2.338-4.798-2.954L38.125 10.15l2.4-2.399c.439-.44.852-.861 1.239-1.266.386-.404.79-.764 1.213-1.08.439-.317.905-.563 1.397-.739.51-.193 1.099-.29 1.767-.29.756 0 1.459.15 2.109.448.668.281 1.248.677 1.74 1.187.51.492.905 1.072 1.187 1.74.299.65.448 1.354.448 2.11 0 .667-.097 1.256-.29 1.766-.176.492-.422.958-.738 1.397-.317.422-.677.827-1.081 1.213-.405.387-.826.8-1.266 1.24l-2.4 2.399-28.502 28.53c-.616-1.864-1.6-3.464-2.953-4.8zm-.079 6.591L5.641 50.36l2.162-8.674c.808.175 1.573.465 2.294.87.72.386 1.362.861 1.925 1.423.562.563 1.037 1.205 1.423 1.925.405.721.695 1.486.87 2.294z" clip-rule="evenodd"/>
    <path fill="#0A2896" d="M38.125 10.15l7.726 7.725 2.399-2.4-7.726-7.725-2.399 2.4z"/>
    <path fill="#0AF" d="M38.125 10.15l7.726 7.725 2.399-2.4-7.726-7.725-2.399 2.4z"/>
</svg>
